<?xml version="1.0" standalone="no"?>
<!DOCTYPE svg PUBLIC "-//W3C//DTD SVG 20010904//EN"
 "http://www.w3.org/TR/2001/REC-SVG-20010904/DTD/svg10.dtd">
<svg version="1.0" xmlns="http://www.w3.org/2000/svg"
 width="1024.000000pt" height="1024.000000pt" viewBox="0 0 1024.000000 1024.000000"
 preserveAspectRatio="xMidYMid meet">

<g transform="translate(0.000000,1024.000000) scale(0.100000,-0.100000)"
fill="#000000" stroke="none">
<path d="M2290 7968 c-19 -13 -43 -39 -52 -58 -17 -33 -18 -183 -18 -2710 l0
-2676 23 -44 c44 -87 -80 -80 1397 -80 1394 0 1409 0 1673 50 472 90 903 314
1251 650 297 288 511 618 641 991 30 85 85 283 85 303 0 4 -276 5 -612 4
l-613 -3 -50 -100 c-171 -342 -428 -577 -760 -695 -218 -77 -168 -73 -1057
-77 l-798 -4 0 1681 0 1681 798 -4 c681 -3 807 -6 868 -19 260 -59 515 -204
697 -398 86 -91 198 -253 258 -371 l39 -79 620 0 c341 0 620 3 620 8 0 22 -73
290 -100 367 -46 131 -157 354 -237 475 -316 479 -781 828 -1331 1000 -117 37
-398 94 -542 111 -77 9 -465 14 -1435 16 l-1331 4 -34 -23z"/>
<path d="M3865 6286 c-41 -18 -83 -69 -90 -109 -3 -18 -5 -473 -3 -1013 l3
-981 29 -37 c53 -70 13 -67 855 -64 749 3 760 3 787 24 15 11 37 33 48 48 20
26 21 43 24 292 l3 264 719 0 c493 0 720 -3 720 -10 0 -23 94 -109 143 -131
70 -32 190 -32 259 -1 68 30 127 88 160 157 72 153 6 341 -148 415 -58 29
-175 39 -238 20 -56 -16 -125 -64 -160 -111 l-30 -39 -713 0 -713 0 0 210 0
210 1053 2 1052 3 39 -28 c50 -35 105 -50 187 -49 116 0 219 66 277 175 23 45
27 64 27 137 0 73 -4 92 -27 136 -34 65 -114 137 -175 158 -153 52 -334 -21
-394 -158 l-24 -56 -1007 0 -1007 0 -3 224 c-3 253 -5 258 -84 303 l-39 23
-750 -1 c-601 0 -756 -2 -780 -13z"/>
</g>
</svg>
